<svg width="64" height="64" viewBox="0 0 64 64" fill="none" xmlns="http://www.w3.org/2000/svg">
<path d="M49.9501 40.7273C47.1839 40.7273 44.4798 39.533 42.1798 37.2954C39.8798 35.0578 38.0872 31.8774 37.0287 28.1565C35.9701 24.4355 35.6931 20.341 36.2328 16.3909C36.7724 12.4407 38.1045 8.81228 40.0604 5.96438C42.0164 3.11647 44.5085 1.17702 47.2215 0.391287C49.9345 -0.394448 52.7467 0.00881802 55.3023 1.55009C57.8579 3.09137 60.0422 5.70143 61.579 9.05021C63.1158 12.399 63.9361 16.3361 63.9361 20.3636L64 23.2727C64 34.0743 61.053 44.4334 55.8072 52.0713C50.5614 59.7091 43.4466 64 36.028 64L36.028 52.3636C38.6529 52.3739 41.2533 51.6264 43.6786 50.1644C46.1039 48.7023 48.3061 46.5548 50.1578 43.8458C50.8775 42.7999 51.5415 41.6757 52.1439 40.4829C51.4286 40.6458 50.6973 40.7331 49.954 40.7331L49.9501 40.7273ZM13.986 40.7273C11.2198 40.7273 8.51579 39.533 6.2158 37.2954C3.91581 35.0578 2.12319 31.8774 1.06463 28.1565C0.0060589 24.4355 -0.270913 20.341 0.268741 16.3909C0.808394 12.4407 2.14044 8.81228 4.09642 5.96437C6.0524 3.11647 8.54446 1.17702 11.2575 0.391282C13.9705 -0.394453 16.7826 0.0088134 19.3382 1.55009C21.8938 3.09136 24.0782 5.70143 25.615 9.05021C27.1518 12.399 27.972 16.3361 27.972 20.3636L28.036 23.2727C28.036 34.0743 25.0889 44.4334 19.8431 52.0713C14.5974 59.7091 7.48258 64 0.0639381 64L0.0639388 52.3636C2.68891 52.3739 5.28923 51.6264 7.71455 50.1644C10.1399 48.7023 12.3421 46.5547 14.1938 43.8458C14.9135 42.7999 15.5774 41.6757 16.1798 40.4829C15.4645 40.6458 14.7333 40.7331 13.986 40.7331L13.986 40.7273Z" fill="#202020" fill-opacity="0.2"/>
</svg>
